<svg width="611" height="91" viewBox="0 0 611 91" fill="none" xmlns="http://www.w3.org/2000/svg">
<path d="M87.1445 23.12C90.3018 23.5893 92.7978 24.4427 94.6325 25.68C96.5098 26.8747 97.8965 28.2613 98.7925 29.84C99.6885 31.4187 100.265 32.976 100.521 34.512C100.777 36.0053 100.905 37.2853 100.905 38.352C100.905 39.7173 100.67 41.296 100.201 43.088C99.7312 44.8373 98.9418 46.5653 97.8325 48.272C96.7658 49.936 95.3365 51.3867 93.5445 52.624C91.7525 53.8187 89.5125 54.544 86.8245 54.8C86.3552 54.8427 85.7578 54.8853 85.0325 54.928C84.3072 54.9707 83.6458 55.0133 83.0485 55.056C82.4938 55.056 82.1525 55.056 82.0245 55.056C80.4032 55.1413 78.9098 55.6107 77.5445 56.464C76.2218 57.3173 75.1552 58.4267 74.3445 59.792C73.5765 61.1147 73.1712 62.608 73.1285 64.272V66.64C73.1285 67.7493 73.2778 68.7733 73.5765 69.712C73.8752 70.608 74.1098 71.2267 74.2805 71.568C73.2565 72.5067 72.3605 73.168 71.5925 73.552C70.8245 73.936 69.8645 74.2133 68.7125 74.384C67.7738 74.512 66.7285 74.4267 65.5765 74.128C64.4672 73.8293 63.4645 73.2747 62.5685 72.464C61.6725 71.6107 61.0965 70.4373 60.8405 68.944C60.7978 68.688 60.7765 67.8773 60.7765 66.512C60.7765 65.104 60.7765 63.376 60.7765 61.328C60.8192 59.2373 60.8405 56.9547 60.8405 54.48C60.8832 52.0053 60.9045 49.5307 60.9045 47.056C60.9045 44.5813 60.9045 42.2773 60.9045 40.144C60.8618 37.84 60.7552 35.8987 60.5845 34.32C60.4565 32.7413 60.1365 31.7387 59.6245 31.312C58.7285 30.544 58.0245 29.3493 57.5125 27.728C57.0432 26.1067 56.8298 24.5707 56.8725 23.12C57.0432 23.1627 57.5125 23.2267 58.2805 23.312C59.0485 23.3547 59.8592 23.4187 60.7125 23.504C61.1392 23.504 61.8432 23.504 62.8245 23.504C63.8058 23.4613 64.8725 23.3973 66.0245 23.312C67.2192 23.2267 68.3712 23.1627 69.4805 23.12C70.5898 23.0347 71.4858 22.9707 72.1685 22.928C73.1072 22.8427 74.3445 22.7573 75.8805 22.672C77.4592 22.5867 79.2298 22.5653 81.1925 22.608C83.1552 22.6507 85.1392 22.8213 87.1445 23.12ZM79.5285 43.088C80.1258 43.1307 80.8725 43.088 81.7685 42.96C82.7072 42.7893 83.6458 42.5333 84.5845 42.192C85.5658 41.8507 86.3765 41.3813 87.0165 40.784C87.6565 40.144 87.9765 39.376 87.9765 38.48C87.9765 37.2427 87.5072 36.2827 86.5685 35.6C85.6725 34.9173 84.5632 34.448 83.2405 34.192C81.9605 33.936 80.7232 33.8293 79.5285 33.872C77.7792 33.9147 76.2858 34.4053 75.0485 35.344C73.8112 36.24 73.1925 37.3067 73.1925 38.544C73.2352 39.3547 73.5552 40.1013 74.1525 40.784C74.7925 41.424 75.5818 41.9573 76.5205 42.384C77.5018 42.8107 78.5045 43.0453 79.5285 43.088ZM141.326 62.416C141.368 63.3547 141.432 64.5067 141.518 65.872C141.646 67.2373 141.923 68.56 142.35 69.84C142.776 71.12 143.459 72.144 144.398 72.912C143.331 73.6373 142.243 74.1493 141.134 74.448C140.024 74.7893 138.936 74.8747 137.87 74.704C137.571 74.6187 137.251 74.512 136.91 74.384C136.568 74.2987 136.099 74.1707 135.502 74C134.52 73.7013 133.368 73.6373 132.046 73.808C130.723 73.9787 129.336 74.192 127.886 74.448C126.478 74.7467 125.091 74.896 123.726 74.896C121.507 74.896 119.288 74.512 117.07 73.744C114.851 72.9333 112.846 71.696 111.054 70.032C109.262 68.368 107.896 66.256 106.958 63.696C106.019 61.136 105.742 58.064 106.126 54.48C106.382 52.0053 107.086 49.744 108.238 47.696C109.39 45.6053 110.798 43.8133 112.462 42.32C114.168 40.784 115.96 39.6107 117.838 38.8C119.758 37.9467 121.614 37.5413 123.406 37.584C124.771 37.6267 125.816 37.6693 126.542 37.712C127.31 37.7547 128.291 37.8613 129.486 38.032C130.211 38.1173 131.128 38.0107 132.238 37.712C133.347 37.4133 134.456 37.0933 135.566 36.752C136.718 36.368 137.699 36.176 138.51 36.176C139.747 36.1333 140.622 36.176 141.134 36.304C141.646 36.3893 142.072 36.4747 142.414 36.56C142.158 37.328 141.944 38.48 141.774 40.016C141.603 41.552 141.475 43.3013 141.39 45.264C141.347 47.184 141.304 49.1893 141.262 51.28C141.219 53.3707 141.198 55.376 141.198 57.296C141.24 59.216 141.283 60.9227 141.326 62.416ZM117.262 56.528C117.347 58.6613 117.731 60.3253 118.414 61.52C119.139 62.672 119.992 63.4827 120.974 63.952C121.998 64.4213 122.979 64.656 123.918 64.656C125.795 64.6987 127.182 63.9733 128.078 62.48C128.974 60.9867 129.4 58.9173 129.358 56.272C129.358 55.5467 129.272 54.6933 129.102 53.712C128.974 52.7307 128.718 51.7707 128.334 50.832C127.992 49.8933 127.502 49.104 126.862 48.464C126.264 47.824 125.475 47.504 124.494 47.504C122.531 47.504 120.803 48.2293 119.31 49.68C117.859 51.1307 117.176 53.4133 117.262 56.528ZM184.378 65.872C184.42 67.7493 184.698 69.072 185.21 69.84C185.764 70.5653 186.042 70.928 186.042 70.928C186.042 70.928 185.658 71.2053 184.89 71.76C184.164 72.272 183.183 72.8053 181.946 73.36C180.708 73.9147 179.322 74.192 177.786 74.192C175.524 74.192 174.052 73.5733 173.37 72.336C172.687 71.0987 172.324 69.4987 172.282 67.536C172.282 67.1947 172.303 66.448 172.346 65.296C172.388 64.144 172.41 62.8427 172.41 61.392C172.452 59.8987 172.452 58.5333 172.41 57.296C172.367 56.016 172.282 55.12 172.154 54.608C171.684 52.9013 170.767 52.1547 169.402 52.368C168.335 52.496 167.332 53.1147 166.394 54.224C165.455 55.2907 164.687 56.5707 164.09 58.064C163.492 59.5573 163.194 60.9653 163.194 62.288C163.194 62.9707 163.151 63.6533 163.066 64.336C163.023 64.976 162.98 65.5733 162.938 66.128C162.895 66.512 162.938 66.9813 163.066 67.536C163.236 68.0907 163.535 68.5387 163.962 68.88C163.663 69.392 163.066 70.0533 162.17 70.864C161.316 71.6747 160.378 72.4213 159.354 73.104C158.372 73.744 157.519 74.1067 156.794 74.192C156.111 74.2347 155.3 74.0213 154.362 73.552C153.466 73.0827 152.676 72.3787 151.994 71.44C151.354 70.5013 151.012 69.3707 150.97 68.048C150.97 67.7067 150.97 66.9173 150.97 65.68C151.012 64.4427 151.034 62.9493 151.034 61.2C151.076 59.4507 151.098 57.5947 151.098 55.632C151.14 53.6693 151.161 51.7707 151.161 49.936C151.161 48.1013 151.161 46.5227 151.161 45.2C151.161 44.048 151.012 42.9387 150.714 41.872C150.458 40.7627 150.18 39.8667 149.882 39.184C149.626 38.4587 149.498 38.096 149.498 38.096C149.882 38.0107 150.543 37.9467 151.482 37.904C152.463 37.8613 153.551 37.8827 154.746 37.968C155.94 38.0533 157.114 38.2453 158.266 38.544C159.46 38.8427 160.463 39.312 161.274 39.952C162.127 40.592 162.98 40.9973 163.833 41.168C164.73 41.296 165.434 41.2107 165.946 40.912C167.439 39.9307 168.954 39.0773 170.49 38.352C172.026 37.6267 173.519 37.1787 174.97 37.008C175.695 36.9227 176.548 36.9653 177.53 37.136C178.511 37.264 179.471 37.584 180.41 38.096C181.391 38.608 182.223 39.3333 182.906 40.272C183.631 41.2107 184.079 42.4053 184.25 43.856C184.548 46.3307 184.634 49.36 184.506 52.944C184.378 56.4853 184.335 60.7947 184.378 65.872ZM218.705 60.752C218.918 61.0933 219.409 61.712 220.177 62.608C220.945 63.504 221.798 64.4853 222.737 65.552C223.718 66.576 224.636 67.5147 225.489 68.368C226.385 69.1787 227.046 69.712 227.473 69.968C226.79 71.504 225.638 72.6773 224.017 73.488C222.438 74.2987 220.689 74.6187 218.769 74.448C216.849 74.32 215.036 73.616 213.329 72.336C212.945 72.0373 212.39 71.504 211.665 70.736C210.982 69.9253 210.342 69.1147 209.745 68.304C209.148 67.4933 208.465 66.6827 207.697 65.872C206.972 65.0187 206.225 64.6773 205.457 64.848C205.073 64.9333 204.71 65.232 204.369 65.744C204.07 66.256 203.921 66.9387 203.921 67.792C203.921 68.5173 204.07 69.2213 204.369 69.904C204.71 70.5867 204.881 70.928 204.881 70.928C204.881 70.928 204.625 71.1413 204.113 71.568C203.644 71.9947 203.004 72.464 202.193 72.976C201.382 73.488 200.508 73.8507 199.569 74.064C198.63 74.2773 197.606 74.128 196.497 73.616C195.43 73.0613 194.513 72.272 193.745 71.248C192.977 70.1813 192.572 69.008 192.529 67.728C192.529 67.3867 192.508 66.4907 192.465 65.04C192.465 63.5467 192.444 61.712 192.401 59.536C192.401 57.3173 192.401 54.9067 192.401 52.304C192.401 49.6587 192.38 47.0133 192.337 44.368C192.337 41.68 192.316 39.1413 192.273 36.752C192.273 34.32 192.273 32.2507 192.273 30.544C192.273 29.4347 192.188 28.3467 192.017 27.28C191.846 26.2133 191.654 25.3387 191.441 24.656C191.27 23.9307 191.185 23.568 191.185 23.568C191.569 23.4827 192.23 23.4613 193.169 23.504C194.15 23.504 195.238 23.6107 196.433 23.824C197.67 23.9947 198.865 24.2933 200.017 24.72C201.212 25.104 202.214 25.68 203.025 26.448C203.878 27.216 204.369 28.176 204.497 29.328C204.54 29.6693 204.561 30.416 204.561 31.568C204.604 32.6773 204.625 33.8933 204.625 35.216C204.625 36.496 204.604 37.5627 204.561 38.416C204.518 39.696 204.689 40.7627 205.073 41.616C205.457 42.4267 205.99 43.024 206.673 43.408C207.356 43.8347 208.166 43.984 209.105 43.856C210.086 43.728 211.132 43.3653 212.241 42.768C212.796 42.4693 213.585 42 214.609 41.36C215.633 40.72 216.678 40.0587 217.745 39.376C218.854 38.6933 219.772 38.1173 220.497 37.648C221.265 37.1787 221.649 36.944 221.649 36.944C222.033 37.2427 222.502 37.84 223.057 38.736C223.612 39.632 224.102 40.656 224.529 41.808C224.956 42.96 225.169 44.1547 225.169 45.392C225.212 46.5867 224.87 47.6533 224.145 48.592C224.017 48.7627 223.761 48.9973 223.377 49.296C223.036 49.5947 222.524 49.9787 221.841 50.448C220.561 51.344 219.644 52.24 219.089 53.136C218.577 53.9893 218.193 54.928 217.937 55.952C217.766 56.7627 217.745 57.5947 217.873 58.448C218.001 59.3013 218.278 60.0693 218.705 60.752ZM265.388 62.416C265.431 63.3547 265.495 64.5067 265.58 65.872C265.708 67.2373 265.985 68.56 266.412 69.84C266.839 71.12 267.521 72.144 268.46 72.912C267.393 73.6373 266.305 74.1493 265.196 74.448C264.087 74.7893 262.999 74.8747 261.932 74.704C261.633 74.6187 261.313 74.512 260.972 74.384C260.631 74.2987 260.161 74.1707 259.564 74C258.583 73.7013 257.431 73.6373 256.108 73.808C254.785 73.9787 253.399 74.192 251.948 74.448C250.54 74.7467 249.153 74.896 247.788 74.896C245.569 74.896 243.351 74.512 241.132 73.744C238.913 72.9333 236.908 71.696 235.116 70.032C233.324 68.368 231.959 66.256 231.02 63.696C230.081 61.136 229.804 58.064 230.188 54.48C230.444 52.0053 231.148 49.744 232.3 47.696C233.452 45.6053 234.86 43.8133 236.524 42.32C238.231 40.784 240.023 39.6107 241.9 38.8C243.82 37.9467 245.676 37.5413 247.468 37.584C248.833 37.6267 249.879 37.6693 250.604 37.712C251.372 37.7547 252.353 37.8613 253.548 38.032C254.273 38.1173 255.191 38.0107 256.3 37.712C257.409 37.4133 258.519 37.0933 259.628 36.752C260.78 36.368 261.761 36.176 262.572 36.176C263.809 36.1333 264.684 36.176 265.196 36.304C265.708 36.3893 266.135 36.4747 266.476 36.56C266.22 37.328 266.007 38.48 265.836 40.016C265.665 41.552 265.537 43.3013 265.452 45.264C265.409 47.184 265.367 49.1893 265.324 51.28C265.281 53.3707 265.26 55.376 265.26 57.296C265.303 59.216 265.345 60.9227 265.388 62.416ZM241.324 56.528C241.409 58.6613 241.793 60.3253 242.476 61.52C243.201 62.672 244.055 63.4827 245.036 63.952C246.06 64.4213 247.041 64.656 247.98 64.656C249.857 64.6987 251.244 63.9733 252.14 62.48C253.036 60.9867 253.463 58.9173 253.42 56.272C253.42 55.5467 253.335 54.6933 253.164 53.712C253.036 52.7307 252.78 51.7707 252.396 50.832C252.055 49.8933 251.564 49.104 250.924 48.464C250.327 47.824 249.537 47.504 248.556 47.504C246.593 47.504 244.865 48.2293 243.372 49.68C241.921 51.1307 241.239 53.4133 241.324 56.528ZM285.08 35.92C283.672 35.9627 282.413 35.5573 281.304 34.704C280.195 33.8507 279.341 32.8053 278.744 31.568C278.189 30.288 277.976 29.072 278.104 27.92C278.317 26.1707 279.085 24.9333 280.408 24.208C281.773 23.44 283.181 23.0347 284.632 22.992C286.723 22.9493 288.344 23.5253 289.496 24.72C290.648 25.9147 291.224 27.28 291.224 28.816C291.224 29.84 291.011 30.8853 290.584 31.952C290.157 33.0187 289.475 33.936 288.536 34.704C287.64 35.4293 286.488 35.8347 285.08 35.92ZM291.736 42.832C291.864 43.8133 291.949 45.1573 291.992 46.864C292.077 48.5707 292.12 50.4693 292.12 52.56C292.163 54.608 292.163 56.6987 292.12 58.832C292.12 60.9227 292.099 62.8853 292.056 64.72C292.013 66.512 291.949 68.0053 291.864 69.2C291.736 71.12 291.267 73.0187 290.456 74.896C289.688 76.816 288.685 78.416 287.448 79.696C286.253 80.976 284.931 81.68 283.48 81.808C282.072 81.936 280.664 81.7653 279.256 81.296C277.891 80.8267 276.696 80.2293 275.672 79.504C274.648 78.8213 273.944 78.2027 273.56 77.648C275.565 77.392 277.08 76.8587 278.104 76.048C279.171 75.28 279.725 73.9147 279.768 71.952C279.768 71.568 279.768 70.672 279.768 69.264C279.768 67.856 279.768 66.128 279.768 64.08C279.768 62.032 279.747 59.8347 279.704 57.488C279.704 55.1413 279.683 52.8373 279.64 50.576C279.64 48.272 279.619 46.1813 279.576 44.304C279.576 42.4267 279.555 40.9333 279.512 39.824C279.512 38.672 279.512 38.096 279.512 38.096C279.896 38.0533 280.536 38.0107 281.432 37.968C282.371 37.8827 283.395 37.8827 284.504 37.968C285.613 38.0533 286.68 38.2667 287.704 38.608C288.771 38.9067 289.667 39.3973 290.392 40.08C291.16 40.7627 291.608 41.68 291.736 42.832ZM361.911 48.976C362.722 49.6587 363.383 50.3627 363.895 51.088C364.407 51.7707 364.77 52.7093 364.983 53.904C365.196 55.056 365.26 56.6773 365.175 58.768C365.132 59.792 364.94 60.9867 364.599 62.352C364.3 63.7173 363.767 65.104 362.999 66.512C362.231 67.92 361.164 69.2213 359.799 70.416C358.434 71.6107 356.706 72.592 354.615 73.36C352.524 74.128 349.964 74.512 346.935 74.512H345.655C344.162 74.4267 342.37 74.384 340.279 74.384C338.188 74.4267 336.247 74.448 334.455 74.448C333.388 74.5333 332.258 74.576 331.063 74.576C329.868 74.576 328.78 74.512 327.799 74.384C326.818 74.256 326.092 74.064 325.623 73.808C325.922 73.2107 326.178 72.3147 326.391 71.12C326.647 69.8827 326.839 68.5387 326.967 67.088C327.095 65.6373 327.138 64.2507 327.095 62.928C327.095 62.5867 327.074 61.7333 327.031 60.368C327.031 58.96 327.01 57.232 326.967 55.184C326.967 53.0933 326.946 50.832 326.903 48.4C326.903 45.968 326.903 43.536 326.903 41.104C326.903 38.5867 326.882 36.432 326.839 34.64C326.796 32.848 326.391 31.7387 325.623 31.312C324.898 30.8427 324.258 29.9253 323.703 28.56C323.191 27.152 322.935 25.3387 322.935 23.12C323.106 23.1627 323.639 23.2267 324.535 23.312C325.431 23.3547 326.284 23.4187 327.095 23.504C328.076 23.5467 329.463 23.5893 331.255 23.632C333.09 23.632 334.988 23.632 336.951 23.632C338.444 23.632 339.938 23.632 341.431 23.632C342.924 23.632 344.268 23.6533 345.463 23.696C346.7 23.696 347.596 23.696 348.151 23.696C350.796 23.696 353.122 24.1867 355.127 25.168C357.132 26.1067 358.711 27.3653 359.863 28.944C361.015 30.5227 361.591 32.2507 361.591 34.128C361.591 36.0053 361.292 37.648 360.695 39.056C360.14 40.464 359.586 41.6587 359.031 42.64C358.476 43.5787 358.22 44.3253 358.263 44.88C358.391 45.776 358.796 46.48 359.479 46.992C360.204 47.504 361.015 48.1653 361.911 48.976ZM348.983 37.776C349.068 37.2213 348.812 36.7093 348.215 36.24C347.66 35.728 346.892 35.3227 345.911 35.024C344.972 34.6827 343.97 34.512 342.903 34.512C341.836 34.512 341.026 34.7893 340.471 35.344C339.916 35.8987 339.554 36.56 339.383 37.328C339.212 38.0533 339.17 38.672 339.255 39.184C339.383 39.9947 339.98 40.5707 341.047 40.912C342.156 41.2107 343.202 41.3813 344.183 41.424C345.164 41.4667 346.167 41.2107 347.191 40.656C348.215 40.0587 348.812 39.0987 348.983 37.776ZM346.423 62.096C347.959 62.0533 349.111 61.8187 349.879 61.392C350.69 60.9653 351.244 60.4107 351.543 59.728C351.842 59.0453 352.034 58.3627 352.119 57.68C352.247 56.7413 351.97 55.9307 351.287 55.248C350.604 54.5227 349.666 53.968 348.471 53.584C347.276 53.2 345.954 53.0293 344.503 53.072C343.052 53.072 341.922 53.392 341.111 54.032C340.3 54.672 339.746 55.4187 339.447 56.272C339.148 57.0827 339.02 57.808 339.063 58.448C339.191 59.344 339.874 60.1973 341.111 61.008C342.348 61.776 344.119 62.1387 346.423 62.096ZM405.701 62.416C405.743 63.3547 405.807 64.5067 405.893 65.872C406.021 67.2373 406.298 68.56 406.725 69.84C407.151 71.12 407.834 72.144 408.773 72.912C407.706 73.6373 406.618 74.1493 405.509 74.448C404.399 74.7893 403.311 74.8747 402.245 74.704C401.946 74.6187 401.626 74.512 401.285 74.384C400.943 74.2987 400.474 74.1707 399.877 74C398.895 73.7013 397.743 73.6373 396.421 73.808C395.098 73.9787 393.711 74.192 392.261 74.448C390.853 74.7467 389.466 74.896 388.101 74.896C385.882 74.896 383.663 74.512 381.445 73.744C379.226 72.9333 377.221 71.696 375.429 70.032C373.637 68.368 372.271 66.256 371.333 63.696C370.394 61.136 370.117 58.064 370.501 54.48C370.757 52.0053 371.461 49.744 372.613 47.696C373.765 45.6053 375.173 43.8133 376.837 42.32C378.543 40.784 380.335 39.6107 382.213 38.8C384.133 37.9467 385.989 37.5413 387.781 37.584C389.146 37.6267 390.191 37.6693 390.917 37.712C391.685 37.7547 392.666 37.8613 393.861 38.032C394.586 38.1173 395.503 38.0107 396.613 37.712C397.722 37.4133 398.831 37.0933 399.941 36.752C401.093 36.368 402.074 36.176 402.885 36.176C404.122 36.1333 404.997 36.176 405.509 36.304C406.021 36.3893 406.447 36.4747 406.789 36.56C406.533 37.328 406.319 38.48 406.149 40.016C405.978 41.552 405.85 43.3013 405.765 45.264C405.722 47.184 405.679 49.1893 405.637 51.28C405.594 53.3707 405.573 55.376 405.573 57.296C405.615 59.216 405.658 60.9227 405.701 62.416ZM381.637 56.528C381.722 58.6613 382.106 60.3253 382.789 61.52C383.514 62.672 384.367 63.4827 385.349 63.952C386.373 64.4213 387.354 64.656 388.293 64.656C390.17 64.6987 391.557 63.9733 392.453 62.48C393.349 60.9867 393.775 58.9173 393.733 56.272C393.733 55.5467 393.647 54.6933 393.477 53.712C393.349 52.7307 393.093 51.7707 392.709 50.832C392.367 49.8933 391.877 49.104 391.237 48.464C390.639 47.824 389.85 47.504 388.869 47.504C386.906 47.504 385.178 48.2293 383.685 49.68C382.234 51.1307 381.551 53.4133 381.637 56.528ZM448.753 65.872C448.795 67.7493 449.073 69.072 449.585 69.84C450.139 70.5653 450.417 70.928 450.417 70.928C450.417 70.928 450.033 71.2053 449.265 71.76C448.539 72.272 447.558 72.8053 446.321 73.36C445.083 73.9147 443.697 74.192 442.161 74.192C439.899 74.192 438.427 73.5733 437.745 72.336C437.062 71.0987 436.699 69.4987 436.657 67.536C436.657 67.1947 436.678 66.448 436.721 65.296C436.763 64.144 436.785 62.8427 436.785 61.392C436.827 59.8987 436.827 58.5333 436.785 57.296C436.742 56.016 436.657 55.12 436.529 54.608C436.059 52.9013 435.142 52.1547 433.777 52.368C432.71 52.496 431.707 53.1147 430.769 54.224C429.83 55.2907 429.062 56.5707 428.465 58.064C427.867 59.5573 427.569 60.9653 427.569 62.288C427.569 62.9707 427.526 63.6533 427.441 64.336C427.398 64.976 427.355 65.5733 427.312 66.128C427.27 66.512 427.313 66.9813 427.441 67.536C427.611 68.0907 427.91 68.5387 428.337 68.88C428.038 69.392 427.441 70.0533 426.545 70.864C425.691 71.6747 424.753 72.4213 423.729 73.104C422.747 73.744 421.894 74.1067 421.169 74.192C420.486 74.2347 419.675 74.0213 418.737 73.552C417.841 73.0827 417.051 72.3787 416.369 71.44C415.729 70.5013 415.387 69.3707 415.345 68.048C415.345 67.7067 415.345 66.9173 415.345 65.68C415.387 64.4427 415.409 62.9493 415.409 61.2C415.451 59.4507 415.473 57.5947 415.473 55.632C415.515 53.6693 415.536 51.7707 415.536 49.936C415.536 48.1013 415.536 46.5227 415.536 45.2C415.536 44.048 415.387 42.9387 415.089 41.872C414.833 40.7627 414.555 39.8667 414.257 39.184C414.001 38.4587 413.873 38.096 413.873 38.096C414.257 38.0107 414.918 37.9467 415.857 37.904C416.838 37.8613 417.926 37.8827 419.121 37.968C420.315 38.0533 421.489 38.2453 422.641 38.544C423.835 38.8427 424.838 39.312 425.649 39.952C426.502 40.592 427.355 40.9973 428.208 41.168C429.105 41.296 429.809 41.2107 430.321 40.912C431.814 39.9307 433.329 39.0773 434.865 38.352C436.401 37.6267 437.894 37.1787 439.345 37.008C440.07 36.9227 440.923 36.9653 441.905 37.136C442.886 37.264 443.846 37.584 444.785 38.096C445.766 38.608 446.598 39.3333 447.281 40.272C448.006 41.2107 448.454 42.4053 448.625 43.856C448.923 46.3307 449.009 49.36 448.881 52.944C448.753 56.4853 448.71 60.7947 448.753 65.872ZM472.264 36.816C475.421 36.816 478.109 37.264 480.328 38.16C482.589 39.056 484.317 40.1653 485.512 41.488C486.707 42.8107 487.283 44.112 487.24 45.392C487.24 46.0747 486.941 46.8427 486.344 47.696C485.747 48.5493 484.957 49.2747 483.976 49.872C483.037 50.4267 481.992 50.64 480.84 50.512C481.139 49.744 480.947 49.0187 480.264 48.336C479.581 47.6533 478.6 47.0987 477.32 46.672C476.04 46.2027 474.653 45.9467 473.16 45.904C471.453 45.8187 470.301 46.0107 469.704 46.48C469.107 46.9067 468.765 47.376 468.68 47.888C468.552 48.4427 468.808 48.9333 469.448 49.36C470.088 49.744 470.92 50.1067 471.944 50.448C473.011 50.7467 474.12 51.024 475.272 51.28C476.467 51.4933 477.555 51.6853 478.536 51.856C479.56 52.0267 480.349 52.1973 480.904 52.368C483.464 53.136 485.341 54.1387 486.536 55.376C487.731 56.5707 488.499 57.8507 488.84 59.216C489.224 60.5813 489.373 61.9253 489.288 63.248C489.203 65.3813 488.648 67.1733 487.624 68.624C486.643 70.032 485.405 71.1627 483.912 72.016C482.461 72.8693 480.925 73.5093 479.304 73.936C477.725 74.32 476.232 74.576 474.824 74.704C473.459 74.832 472.413 74.896 471.688 74.896C469.469 74.8533 467.379 74.6187 465.416 74.192C463.496 73.808 461.832 73.296 460.424 72.656C459.059 72.016 458.077 71.3333 457.48 70.608C457.053 70.096 456.648 69.3707 456.264 68.432C455.88 67.4933 455.645 66.4907 455.56 65.424C455.517 64.3147 455.752 63.2693 456.264 62.288C456.776 61.264 457.715 60.432 459.08 59.792C459.336 60.6453 460.019 61.4133 461.128 62.096C462.28 62.7787 463.645 63.3333 465.224 63.76C466.845 64.1867 468.445 64.4853 470.024 64.656C471.56 64.784 473.011 64.7627 474.376 64.592C475.741 64.4213 476.488 63.9307 476.616 63.12C476.701 62.6933 476.488 62.2667 475.976 61.84C475.464 61.4133 474.525 61.0507 473.16 60.752C471.709 60.4107 470.429 60.1547 469.32 59.984C468.253 59.7707 467.187 59.536 466.12 59.28C464.115 58.768 462.365 57.9573 460.872 56.848C459.379 55.7387 458.248 54.416 457.48 52.88C456.755 51.3013 456.499 49.6373 456.712 47.888C457.053 45.3707 457.971 43.3013 459.464 41.68C461 40.0587 462.899 38.8427 465.16 38.032C467.421 37.2213 469.789 36.816 472.264 36.816ZM529.763 62.416C529.806 63.3547 529.87 64.5067 529.955 65.872C530.083 67.2373 530.36 68.56 530.787 69.84C531.214 71.12 531.896 72.144 532.835 72.912C531.768 73.6373 530.68 74.1493 529.571 74.448C528.462 74.7893 527.374 74.8747 526.307 74.704C526.008 74.6187 525.688 74.512 525.347 74.384C525.006 74.2987 524.536 74.1707 523.939 74C522.958 73.7013 521.806 73.6373 520.483 73.808C519.16 73.9787 517.774 74.192 516.323 74.448C514.915 74.7467 513.528 74.896 512.163 74.896C509.944 74.896 507.726 74.512 505.507 73.744C503.288 72.9333 501.283 71.696 499.491 70.032C497.699 68.368 496.334 66.256 495.395 63.696C494.456 61.136 494.179 58.064 494.563 54.48C494.819 52.0053 495.523 49.744 496.675 47.696C497.827 45.6053 499.235 43.8133 500.899 42.32C502.606 40.784 504.398 39.6107 506.275 38.8C508.195 37.9467 510.051 37.5413 511.843 37.584C513.208 37.6267 514.254 37.6693 514.979 37.712C515.747 37.7547 516.728 37.8613 517.923 38.032C518.648 38.1173 519.566 38.0107 520.675 37.712C521.784 37.4133 522.894 37.0933 524.003 36.752C525.155 36.368 526.136 36.176 526.947 36.176C528.184 36.1333 529.059 36.176 529.571 36.304C530.083 36.3893 530.51 36.4747 530.851 36.56C530.595 37.328 530.382 38.48 530.211 40.016C530.04 41.552 529.912 43.3013 529.827 45.264C529.784 47.184 529.742 49.1893 529.699 51.28C529.656 53.3707 529.635 55.376 529.635 57.296C529.678 59.216 529.72 60.9227 529.763 62.416ZM505.699 56.528C505.784 58.6613 506.168 60.3253 506.851 61.52C507.576 62.672 508.43 63.4827 509.411 63.952C510.435 64.4213 511.416 64.656 512.355 64.656C514.232 64.6987 515.619 63.9733 516.515 62.48C517.411 60.9867 517.838 58.9173 517.795 56.272C517.795 55.5467 517.71 54.6933 517.539 53.712C517.411 52.7307 517.155 51.7707 516.771 50.832C516.43 49.8933 515.939 49.104 515.299 48.464C514.702 47.824 513.912 47.504 512.931 47.504C510.968 47.504 509.24 48.2293 507.747 49.68C506.296 51.1307 505.614 53.4133 505.699 56.528ZM539.023 68.752C539.023 68.4107 539.023 67.4933 539.023 66C539.023 64.464 539.023 62.5653 539.023 60.304C539.023 58.0427 539.002 55.568 538.959 52.88C538.959 50.1493 538.959 47.3973 538.959 44.624C538.959 41.8507 538.938 39.2267 538.895 36.752C538.895 34.2347 538.874 32.0587 538.831 30.224C538.788 28.4747 538.639 27.024 538.383 25.872C538.127 24.6773 537.978 23.952 537.935 23.696C538.447 23.6107 539.215 23.5893 540.239 23.632C541.263 23.632 542.394 23.76 543.631 24.016C544.911 24.2293 546.127 24.592 547.279 25.104C548.431 25.5733 549.391 26.256 550.159 27.152C550.927 28.0053 551.332 29.0933 551.375 30.416C551.418 31.2267 551.439 32.656 551.439 34.704C551.482 36.7093 551.503 39.0773 551.503 41.808C551.546 44.496 551.588 47.2693 551.631 50.128C551.674 52.944 551.695 55.6107 551.695 58.128C551.738 60.6453 551.759 62.7573 551.759 64.464C551.802 66.128 551.823 67.1093 551.823 67.408C551.823 68.304 552.058 69.1787 552.527 70.032C553.039 70.8427 553.572 71.3547 554.127 71.568C553.871 71.9093 553.295 72.3573 552.399 72.912C551.503 73.4667 550.458 73.9787 549.263 74.448C548.111 74.9173 546.938 75.216 545.743 75.344C544.762 75.4293 543.738 75.1947 542.671 74.64C541.647 74.128 540.772 73.36 540.047 72.336C539.364 71.312 539.023 70.1173 539.023 68.752Z" fill="white"/>
</svg>
